<svg width="320" height="47" viewBox="0 0 320 47" fill="none" xmlns="http://www.w3.org/2000/svg">
<path d="M30.6105 13.7631L28.2089 6.07779C25.8698 -1.40728 15.2763 -1.40727 12.9372 6.07779L12.9334 6.09009L0.360107 46.938H6.63791L18.6679 7.85521C19.2604 5.99618 21.8985 6.00026 22.482 7.86744L27.4674 23.8209L30.6105 13.7631Z" fill="url(#paint0_radial_35_45)"/>
<path d="M54.5201 0.463989L42.4901 39.5468C41.8976 41.4058 39.2595 41.4017 38.676 39.5346L33.6906 23.5811L30.5475 33.639L32.9491 41.3242C35.2882 48.8093 45.8817 48.8093 48.2208 41.3242L48.2246 41.3119L60.7979 0.463989H54.5201Z" fill="url(#paint1_radial_35_45)"/>
<path d="M48.2837 6.07791C45.9446 -1.40714 35.3511 -1.40717 33.012 6.07791L22.5568 39.5346C21.9721 41.4058 19.3237 41.4058 18.7389 39.5346L18.7371 39.5351L13.7914 23.7088L10.6721 33.8427L13.0114 41.3284L13.0132 41.3278C15.3545 48.8093 25.945 48.8081 28.2837 41.3242L38.7389 7.86756C39.3237 5.99631 41.972 5.99629 42.5568 7.86753L47.4383 23.4887L50.5576 13.3548L48.2837 6.07791Z" fill="url(#paint2_linear_35_45)"/>
<path d="M69.295 31.9064V15.9093H74.5813L77.2806 27.5778L79.98 15.9093H85.2662V31.9064H82.1619V19.5322H81.8245L78.8327 31.2007H75.7285L72.7367 19.5322H72.3993V31.9064H69.295Z" fill="white"/>
<path d="M116.233 23.0284H113.404V27.7434C113.404 28.2034 113.412 28.5331 113.427 28.7324C113.458 28.9164 113.542 29.0774 113.68 29.2154C113.833 29.3534 114.063 29.4224 114.37 29.4224L116.118 29.3764L116.256 31.8374C115.229 32.0674 114.447 32.1824 113.91 32.1824C112.53 32.1824 111.587 31.8757 111.081 31.2624C110.575 30.6337 110.322 29.4837 110.322 27.8124V23.0284H108.965V20.4064H110.322V17.2094H113.404V20.4064H116.233V23.0284Z" fill="white"/>
<path d="M107.73 23.2814C105.829 23.0361 104.495 22.9134 103.728 22.9134C102.977 22.9134 102.486 22.9824 102.256 23.1204C102.042 23.2584 101.934 23.4807 101.934 23.7874C101.934 24.0787 102.08 24.2857 102.371 24.4084C102.678 24.5157 103.445 24.6844 104.671 24.9144C105.913 25.1291 106.795 25.4894 107.316 25.9954C107.838 26.5014 108.098 27.3217 108.098 28.4564C108.098 30.9404 106.557 32.1824 103.475 32.1824C102.463 32.1824 101.237 32.0444 99.7955 31.7684L99.0595 31.6304L99.1515 29.0544C101.053 29.2997 102.371 29.4224 103.107 29.4224C103.859 29.4224 104.365 29.3534 104.625 29.2154C104.901 29.0621 105.039 28.8397 105.039 28.5484C105.039 28.2571 104.894 28.0424 104.602 27.9044C104.326 27.7664 103.59 27.5977 102.394 27.3984C101.214 27.1991 100.332 26.8617 99.7494 26.3864C99.1668 25.9111 98.8755 25.0677 98.8755 23.8564C98.8755 22.6297 99.2894 21.7097 100.117 21.0964C100.945 20.4677 102.011 20.1534 103.314 20.1534C104.219 20.1534 105.453 20.2991 107.017 20.5904L107.776 20.7284L107.73 23.2814Z" fill="white"/>
<path d="M88.3132 21.7174C89.1259 20.6594 90.4829 20.1304 92.3842 20.1304C94.2856 20.1304 95.6426 20.6594 96.4552 21.7174C97.2679 22.7601 97.6742 24.2321 97.6742 26.1334C97.6742 30.1661 95.9109 32.1824 92.3842 32.1824C88.8576 32.1824 87.0942 30.1661 87.0942 26.1334C87.0942 24.2321 87.5006 22.7601 88.3132 21.7174ZM90.6822 28.7324C91.0042 29.2844 91.5716 29.5604 92.3842 29.5604C93.1969 29.5604 93.7566 29.2844 94.0632 28.7324C94.3852 28.1804 94.5462 27.3141 94.5462 26.1334C94.5462 24.9527 94.3852 24.0941 94.0632 23.5574C93.7566 23.0207 93.1969 22.7524 92.3842 22.7524C91.5716 22.7524 91.0042 23.0207 90.6822 23.5574C90.3756 24.0941 90.2222 24.9527 90.2222 26.1334C90.2222 27.3141 90.3756 28.1804 90.6822 28.7324Z" fill="white"/>
<path d="M137.279 15.9064L141.457 22.9243C141.811 23.5189 141.811 24.2724 141.457 24.867L137.266 31.9061H141.407L144.44 26.8098C145.502 25.0258 145.502 22.7655 144.44 20.9815L141.419 15.9064H137.279Z" fill="white"/>
<path d="M154.171 15.9064L149.993 22.9243C149.639 23.5189 149.639 24.2724 149.993 24.867L154.183 31.9061H150.043L147.009 26.8098C145.947 25.0258 145.947 22.7655 147.009 20.9815L150.03 15.9064H154.171Z" fill="white"/>
<path d="M201.566 20.4064V31.9064H204.648V20.4064H201.566Z" fill="white"/>
<path d="M201.566 15.8064V18.9344H204.648V15.8064H201.566Z" fill="white"/>
<path fill-rule="evenodd" clip-rule="evenodd" d="M220.956 29.0084C220.603 28.6864 220.419 28.1727 220.404 27.4674H227.166L227.396 25.3284C227.396 21.8631 225.724 20.1304 222.382 20.1304C218.993 20.1304 217.299 22.1927 217.299 26.3174C217.299 28.3874 217.69 29.8824 218.472 30.8024C219.254 31.7224 220.511 32.1824 222.244 32.1824C223.67 32.1824 225.264 31.9677 227.028 31.5384L226.982 29.2614L226.338 29.3304C225.218 29.4224 223.946 29.4684 222.52 29.4684C221.845 29.4684 221.324 29.3151 220.956 29.0084ZM223.923 23.2124C224.214 23.5651 224.36 24.2014 224.36 25.1214H220.381C220.396 24.2321 220.549 23.6034 220.841 23.2354C221.147 22.8521 221.661 22.6604 222.382 22.6604C223.118 22.6604 223.631 22.8444 223.923 23.2124Z" fill="white"/>
<path fill-rule="evenodd" clip-rule="evenodd" d="M129.774 29.0084C129.422 28.6864 129.238 28.1727 129.222 27.4674H135.984L136.214 25.3284C136.214 21.8631 134.543 20.1304 131.2 20.1304C127.812 20.1304 126.117 22.1927 126.117 26.3174C126.117 28.3874 126.508 29.8824 127.29 30.8024C128.072 31.7224 129.33 32.1824 131.062 32.1824C132.488 32.1824 134.083 31.9677 135.846 31.5384L135.8 29.2614L135.156 29.3304C134.037 29.4224 132.764 29.4684 131.338 29.4684C130.664 29.4684 130.142 29.3151 129.774 29.0084ZM132.741 23.2124C133.033 23.5651 133.178 24.2014 133.178 25.1214H129.199C129.215 24.2321 129.368 23.6034 129.659 23.2354C129.966 22.8521 130.48 22.6604 131.2 22.6604C131.936 22.6604 132.45 22.8444 132.741 23.2124Z" fill="white"/>
<path d="M205.955 20.4064H209.175L211.015 29.2844H211.659L213.591 20.4064H216.719L213.959 31.9064H208.715L205.955 20.4064Z" fill="white"/>
<path d="M199.434 23.2814C197.533 23.0361 196.199 22.9134 195.432 22.9134C194.681 22.9134 194.19 22.9824 193.96 23.1204C193.746 23.2584 193.638 23.4807 193.638 23.7874C193.638 24.0787 193.784 24.2857 194.075 24.4084C194.382 24.5157 195.149 24.6844 196.375 24.9144C197.617 25.1291 198.499 25.4894 199.02 25.9954C199.542 26.5014 199.802 27.3217 199.802 28.4564C199.802 30.9404 198.261 32.1824 195.179 32.1824C194.167 32.1824 192.941 32.0444 191.499 31.7684L190.763 31.6304L190.855 29.0544C192.757 29.2997 194.075 29.4224 194.811 29.4224C195.563 29.4224 196.069 29.3534 196.329 29.2154C196.605 29.0621 196.743 28.8397 196.743 28.5484C196.743 28.2571 196.598 28.0424 196.306 27.9044C196.03 27.7664 195.294 27.5977 194.098 27.3984C192.918 27.1991 192.036 26.8617 191.453 26.3864C190.871 25.9111 190.579 25.0677 190.579 23.8564C190.579 22.6297 190.993 21.7097 191.821 21.0964C192.649 20.4677 193.715 20.1534 195.018 20.1534C195.923 20.1534 197.157 20.2991 198.721 20.5904L199.48 20.7284L199.434 23.2814Z" fill="white"/>
<path d="M178.924 31.9064H182.006V23.3044L182.282 23.2124C182.865 22.9977 183.471 22.8904 184.099 22.8904C184.789 22.8904 185.249 23.1281 185.479 23.6034C185.709 24.0634 185.824 24.7841 185.824 25.7654V31.9064H188.906V25.6734C188.906 23.7874 188.615 22.3921 188.032 21.4874C187.45 20.5827 186.392 20.1304 184.858 20.1304C183.984 20.1304 183.026 20.4371 181.983 21.0504V20.4064H178.924V31.9064Z" fill="white"/>
<path fill-rule="evenodd" clip-rule="evenodd" d="M170.19 27.4674C170.205 28.1727 170.389 28.6864 170.742 29.0084C171.11 29.3151 171.631 29.4684 172.306 29.4684C173.732 29.4684 175.005 29.4224 176.124 29.3304L176.768 29.2614L176.814 31.5384C175.051 31.9677 173.456 32.1824 172.03 32.1824C170.297 32.1824 169.04 31.7224 168.258 30.8024C167.476 29.8824 167.085 28.3874 167.085 26.3174C167.085 22.1927 168.779 20.1304 172.168 20.1304C175.511 20.1304 177.182 21.8631 177.182 25.3284L176.952 27.4674H170.19ZM174.146 25.1214C174.146 24.2014 174 23.5651 173.709 23.2124C173.418 22.8444 172.904 22.6604 172.168 22.6604C171.447 22.6604 170.934 22.8521 170.627 23.2354C170.336 23.6034 170.182 24.2321 170.167 25.1214H174.146Z" fill="white"/>
<path fill-rule="evenodd" clip-rule="evenodd" d="M155.609 20.4064V36.7364H158.691V31.9984L158.967 32.0444C159.55 32.1364 160.094 32.1824 160.6 32.1824C162.455 32.1824 163.789 31.7531 164.602 30.8944C165.415 30.0204 165.821 28.4717 165.821 26.2484C165.821 24.0251 165.453 22.4534 164.717 21.5334C163.981 20.5981 162.839 20.1304 161.29 20.1304C160.539 20.1304 159.665 20.4294 158.668 21.0274V20.4064H155.609ZM158.967 23.2354C159.55 23.0054 160.125 22.8904 160.692 22.8904C162.026 22.8904 162.693 23.9484 162.693 26.0644C162.693 27.3217 162.524 28.2111 162.187 28.7324C161.865 29.2537 161.259 29.5144 160.37 29.5144C159.941 29.5144 159.381 29.4684 158.691 29.3764V23.3504L158.967 23.2354Z" fill="white"/>
<path d="M236.183 31.9062V15.9091H241.469L244.169 27.5776L246.868 15.9091H252.154V31.9062H249.05V19.5319H248.713L245.721 31.2004H242.617L239.625 19.5319H239.287V31.9062H236.183Z" fill="white"/>
<path d="M312.674 27.4674C312.689 28.1728 312.873 28.6864 313.226 29.0084C313.594 29.3151 314.115 29.4684 314.79 29.4684C316.216 29.4684 317.489 29.4224 318.608 29.3304L319.252 29.2614L319.298 31.5384C317.535 31.9678 315.94 32.1824 314.514 32.1824C312.781 32.1824 311.524 31.7224 310.742 30.8024C309.96 29.8824 309.569 28.3874 309.569 26.3174C309.569 22.1928 311.263 20.1304 314.652 20.1304C317.995 20.1304 319.666 21.8631 319.666 25.3284L319.436 27.4674H312.674ZM316.63 25.1214C316.63 24.2014 316.484 23.5651 316.193 23.2124C315.902 22.8444 315.388 22.6604 314.652 22.6604C313.931 22.6604 313.418 22.8521 313.111 23.2354C312.82 23.6034 312.666 24.2321 312.651 25.1214H316.63Z" fill="white"/>
<path d="M308.737 33.3324C308.737 34.6511 308.231 35.6248 307.219 36.2534C306.207 36.8821 304.835 37.1964 303.102 37.1964C301.385 37.1964 300.058 36.9664 299.123 36.5064C298.203 36.0464 297.743 35.2108 297.743 33.9994C297.743 33.0334 298.295 32.1211 299.399 31.2624C298.832 30.8791 298.548 30.2964 298.548 29.5144C298.548 29.2078 298.778 28.7018 299.238 27.9964L299.445 27.6744C298.402 26.9231 297.881 25.8191 297.881 24.3624C297.881 22.8904 298.318 21.8248 299.192 21.1654C300.081 20.5061 301.254 20.1764 302.711 20.1764C303.37 20.1764 304.022 20.2531 304.666 20.4064L305.034 20.4754L308.737 20.3604V22.8214L307.012 22.6834C307.349 23.2048 307.518 23.7261 307.518 24.2474C307.518 25.7808 307.127 26.8388 306.345 27.4214C305.563 28.0041 304.336 28.2954 302.665 28.2954C302.312 28.2954 301.998 28.2648 301.722 28.2034C301.569 28.6021 301.492 28.9318 301.492 29.1924C301.492 29.4378 301.622 29.6064 301.883 29.6984C302.144 29.7904 302.757 29.8441 303.723 29.8594C305.655 29.8748 306.974 30.1354 307.679 30.6414C308.384 31.1321 308.737 32.0291 308.737 33.3324ZM300.779 33.6774C300.779 34.3368 301.584 34.6664 303.194 34.6664C304.819 34.6664 305.632 34.2831 305.632 33.5164C305.632 33.1024 305.494 32.8341 305.218 32.7114C304.942 32.6041 304.359 32.5428 303.47 32.5274L301.4 32.3664C300.986 32.7804 300.779 33.2174 300.779 33.6774ZM300.963 24.2704C300.963 25.3898 301.546 25.9494 302.711 25.9494C303.892 25.9494 304.482 25.3898 304.482 24.2704C304.482 23.1358 303.892 22.5684 302.711 22.5684C301.546 22.5684 300.963 23.1358 300.963 24.2704Z" fill="white"/>
<path d="M295.84 23.9944V28.7784C295.87 29.1464 295.932 29.4071 296.024 29.5604C296.116 29.6984 296.307 29.7981 296.599 29.8594L296.507 32.1824C295.725 32.1824 295.096 32.1288 294.621 32.0214C294.161 31.9141 293.693 31.6994 293.218 31.3774C292.114 31.9141 290.987 32.1824 289.837 32.1824C287.46 32.1824 286.272 30.9251 286.272 28.4104C286.272 27.1838 286.601 26.3174 287.261 25.8114C287.92 25.2901 288.932 24.9834 290.297 24.8914L292.758 24.7074V23.9944C292.758 23.5191 292.65 23.1971 292.436 23.0284C292.221 22.8444 291.876 22.7524 291.401 22.7524L287.077 22.9364L286.985 20.7974C288.625 20.3528 290.182 20.1304 291.654 20.1304C293.141 20.1304 294.207 20.4371 294.851 21.0504C295.51 21.6638 295.84 22.6451 295.84 23.9944ZM290.665 27.0304C289.806 27.1071 289.377 27.5671 289.377 28.4104C289.377 29.2538 289.752 29.6754 290.504 29.6754C291.086 29.6754 291.723 29.5834 292.413 29.3994L292.758 29.3074V26.8464L290.665 27.0304Z" fill="white"/>
<path d="M284.899 23.2814C282.998 23.0361 281.664 22.9134 280.897 22.9134C280.146 22.9134 279.655 22.9824 279.425 23.1204C279.211 23.2584 279.103 23.4808 279.103 23.7874C279.103 24.0788 279.249 24.2858 279.54 24.4084C279.847 24.5158 280.614 24.6844 281.84 24.9144C283.082 25.1291 283.964 25.4894 284.485 25.9954C285.007 26.5014 285.267 27.3218 285.267 28.4564C285.267 30.9404 283.726 32.1824 280.644 32.1824C279.632 32.1824 278.406 32.0444 276.964 31.7684L276.228 31.6304L276.32 29.0544C278.222 29.2998 279.54 29.4224 280.276 29.4224C281.028 29.4224 281.534 29.3534 281.794 29.2154C282.07 29.0621 282.208 28.8398 282.208 28.5484C282.208 28.2571 282.063 28.0424 281.771 27.9044C281.495 27.7664 280.759 27.5978 279.563 27.3984C278.383 27.1991 277.501 26.8618 276.918 26.3864C276.336 25.9111 276.044 25.0678 276.044 23.8564C276.044 22.6298 276.458 21.7098 277.286 21.0964C278.114 20.4678 279.18 20.1534 280.483 20.1534C281.388 20.1534 282.622 20.2991 284.186 20.5904L284.945 20.7284L284.899 23.2814Z" fill="white"/>
<path d="M274.511 23.2814C272.609 23.0361 271.275 22.9134 270.509 22.9134C269.757 22.9134 269.267 22.9824 269.037 23.1204C268.822 23.2584 268.715 23.4808 268.715 23.7874C268.715 24.0788 268.86 24.2858 269.152 24.4084C269.458 24.5158 270.225 24.6844 271.452 24.9144C272.694 25.1291 273.575 25.4894 274.097 25.9954C274.618 26.5014 274.879 27.3218 274.879 28.4564C274.879 30.9404 273.338 32.1824 270.256 32.1824C269.244 32.1824 268.017 32.0444 266.576 31.7684L265.84 31.6304L265.932 29.0544C267.833 29.2998 269.152 29.4224 269.888 29.4224C270.639 29.4224 271.145 29.3534 271.406 29.2154C271.682 29.0621 271.82 28.8398 271.82 28.5484C271.82 28.2571 271.674 28.0424 271.383 27.9044C271.107 27.7664 270.371 27.5978 269.175 27.3984C267.994 27.1991 267.112 26.8618 266.53 26.3864C265.947 25.9111 265.656 25.0678 265.656 23.8564C265.656 22.6298 266.07 21.7098 266.898 21.0964C267.726 20.4678 268.791 20.1534 270.095 20.1534C270.999 20.1534 272.234 20.2991 273.798 20.5904L274.557 20.7284L274.511 23.2814Z" fill="white"/>
<path d="M257.519 27.4674C257.534 28.1728 257.718 28.6864 258.071 29.0084C258.439 29.3151 258.96 29.4684 259.635 29.4684C261.061 29.4684 262.334 29.4224 263.453 29.3304L264.097 29.2614L264.143 31.5384C262.38 31.9678 260.785 32.1824 259.359 32.1824C257.626 32.1824 256.369 31.7224 255.587 30.8024C254.805 29.8824 254.414 28.3874 254.414 26.3174C254.414 22.1928 256.108 20.1304 259.497 20.1304C262.84 20.1304 264.511 21.8631 264.511 25.3284L264.281 27.4674H257.519ZM261.475 25.1214C261.475 24.2014 261.329 23.5651 261.038 23.2124C260.747 22.8444 260.233 22.6604 259.497 22.6604C258.776 22.6604 258.263 22.8521 257.956 23.2354C257.665 23.6034 257.511 24.2321 257.496 25.1214H261.475Z" fill="white"/>
<defs>
<radialGradient id="paint0_radial_35_45" cx="0" cy="0" r="1" gradientUnits="userSpaceOnUse" gradientTransform="translate(20.1942 4.21712) rotate(106.783) scale(41.0752 29.9837)">
<stop offset="0.0001" stop-color="#0094FF"/>
<stop offset="0.5" stop-color="#17A8BC" stop-opacity="0.457943"/>
<stop offset="0.95" stop-color="#17A8BC" stop-opacity="0"/>
</radialGradient>
<radialGradient id="paint1_radial_35_45" cx="0" cy="0" r="1" gradientUnits="userSpaceOnUse" gradientTransform="translate(40.8629 43.0956) rotate(-72.3499) scale(46.1736 33.7054)">
<stop offset="0.0001" stop-color="#3BC179"/>
<stop offset="0.5" stop-color="#17A8BC" stop-opacity="0.457943"/>
<stop offset="0.95" stop-color="#17A8BC" stop-opacity="0"/>
</radialGradient>
<linearGradient id="paint2_linear_35_45" x1="15.9278" y1="23.4238" x2="43.1944" y2="31.2276" gradientUnits="userSpaceOnUse">
<stop stop-color="#8E00B1" stop-opacity="0.8"/>
<stop offset="0.05" stop-color="#8E00B1"/>
<stop offset="0.95" stop-color="#0094FF"/>
<stop offset="1" stop-color="#0094FF" stop-opacity="0.8"/>
</linearGradient>
</defs>
</svg>
