<svg width="121" height="47" viewBox="0 0 121 47" fill="none" xmlns="http://www.w3.org/2000/svg">
<path d="M30.6105 13.4548L28.2089 5.76956C25.8698 -1.71551 15.2763 -1.7155 12.9372 5.76956L12.9334 5.78186L0.360107 46.6298H6.63791L18.6679 7.54698C19.2604 5.68795 21.8985 5.69203 22.482 7.55921L27.4674 23.5127L30.6105 13.4548Z" fill="url(#paint0_radial_35_36)"/>
<path d="M54.5201 0.155762L42.4901 39.2386C41.8976 41.0976 39.2595 41.0935 38.676 39.2263L33.6906 23.2729L30.5475 33.3307L32.9491 41.016C35.2882 48.5011 45.8817 48.5011 48.2208 41.016L48.2246 41.0037L60.7979 0.155762H54.5201Z" fill="url(#paint1_radial_35_36)"/>
<path d="M48.2837 5.76969C45.9446 -1.71537 35.3511 -1.71539 33.012 5.76968L22.5568 39.2263C21.9721 41.0976 19.3237 41.0976 18.7389 39.2263L18.7371 39.2269L13.7914 23.4005L10.6721 33.5345L13.0114 41.0201L13.0132 41.0196C15.3545 48.501 25.945 48.4998 28.2837 41.016L38.7389 7.55933C39.3237 5.68809 41.972 5.68806 42.5568 7.5593L47.4383 23.1805L50.5576 13.0466L48.2837 5.76969Z" fill="url(#paint2_linear_35_36)"/>
<path d="M69.295 31.4982V15.501H74.5813L77.2806 27.1695L79.98 15.501H85.2662V31.4982H82.1619V19.1239H81.8245L78.8327 30.7924H75.7285L72.7367 19.1239H72.3993V31.4982H69.295Z" fill="white"/>
<path d="M104.324 31.4979V15.5008H109.61L112.309 27.1693L115.009 15.5008H120.295V31.4979H117.191V19.1237H116.853L113.862 30.7922H110.757L107.766 19.1237H107.428V31.4979H104.324Z" fill="white"/>
<path d="M86.3725 15.4982L90.5503 22.5161C90.9043 23.1107 90.9043 23.8642 90.5503 24.4588L86.3599 31.4979H90.5002L93.5341 26.4016C94.5961 24.6176 94.5961 22.3573 93.5341 20.5733L90.5128 15.4982H86.3725Z" fill="white"/>
<path d="M103.264 15.4982L99.0864 22.5161C98.7323 23.1107 98.7323 23.8642 99.0864 24.4588L103.277 31.4979H99.1365L96.1026 26.4016C95.0406 24.6176 95.0406 22.3573 96.1026 20.5733L99.1239 15.4982H103.264Z" fill="white"/>
<defs>
<radialGradient id="paint0_radial_35_36" cx="0" cy="0" r="1" gradientUnits="userSpaceOnUse" gradientTransform="translate(20.1942 3.90889) rotate(106.783) scale(41.0752 29.9837)">
<stop offset="0.0001" stop-color="#0094FF"/>
<stop offset="0.5" stop-color="#17A8BC" stop-opacity="0.457943"/>
<stop offset="0.95" stop-color="#17A8BC" stop-opacity="0"/>
</radialGradient>
<radialGradient id="paint1_radial_35_36" cx="0" cy="0" r="1" gradientUnits="userSpaceOnUse" gradientTransform="translate(40.8629 42.7874) rotate(-72.3499) scale(46.1736 33.7054)">
<stop offset="0.0001" stop-color="#3BC179"/>
<stop offset="0.5" stop-color="#17A8BC" stop-opacity="0.457943"/>
<stop offset="0.95" stop-color="#17A8BC" stop-opacity="0"/>
</radialGradient>
<linearGradient id="paint2_linear_35_36" x1="15.9278" y1="23.1156" x2="43.1944" y2="30.9194" gradientUnits="userSpaceOnUse">
<stop stop-color="#8E00B1" stop-opacity="0.8"/>
<stop offset="0.05" stop-color="#8E00B1"/>
<stop offset="0.95" stop-color="#0094FF"/>
<stop offset="1" stop-color="#0094FF" stop-opacity="0.8"/>
</linearGradient>
</defs>
</svg>
