<svg width="24" height="24" viewBox="0 0 24 24" fill="none" xmlns="http://www.w3.org/2000/svg">
<path fill-rule="evenodd" clip-rule="evenodd" d="M8.47799 17.9772C8.47799 16.0977 8.47057 14.2194 8.48436 12.341C8.48648 12.0248 8.39734 11.925 8.0811 11.9377C7.4953 11.9611 6.90844 11.9356 6.32265 11.9484C6.08493 11.9547 5.99792 11.8889 6.00004 11.6374C6.01171 10.4648 6.01065 9.29212 6.0011 8.11947C5.99898 7.89449 6.06689 7.8202 6.29506 7.82445C6.89465 7.83824 7.4953 7.80747 8.09383 7.83718C8.44085 7.85416 8.51195 7.73106 8.50559 7.40951C8.48436 6.51702 8.48436 5.62347 8.50452 4.73098C8.52787 3.6411 8.82077 2.62339 9.47024 1.73727C10.2916 0.615557 11.46 0.101925 12.8067 0.0424965C14.1906 -0.0190545 15.5776 0.0149045 16.9635 4.73598e-05C17.1567 -0.00207509 17.214 0.0669046 17.214 0.254741C17.2076 1.44013 17.2066 2.62658 17.214 3.81196C17.2161 4.02315 17.1471 4.08788 16.9402 4.08363C16.2737 4.07302 15.6073 4.07833 14.9419 4.08045C14.0547 4.08363 13.5241 4.53996 13.4689 5.41759C13.4244 6.12118 13.4573 6.82902 13.4403 7.53579C13.4339 7.7873 13.5835 7.77032 13.7502 7.77032C14.7626 7.76926 15.776 7.77987 16.7884 7.7629C17.0856 7.75759 17.1832 7.82657 17.1492 8.13857C17.0219 9.31653 16.9126 10.4966 16.8118 11.6777C16.7884 11.9441 16.6675 11.9951 16.4276 11.9908C15.6285 11.9781 14.8294 11.9823 14.0293 11.9876C13.4551 11.9908 13.5114 11.9038 13.5114 12.4896C13.5082 16.1667 13.5039 19.8449 13.5199 23.5221C13.522 23.9105 13.4222 24.007 13.0381 23.9996C11.6659 23.9741 10.2927 23.9731 8.92052 23.9996C8.53424 24.007 8.47057 23.8765 8.47375 23.5316C8.48861 21.6798 8.48118 19.8279 8.48118 17.975L8.47799 17.9772Z" fill="white"/>
</svg>
