<svg width="24" height="24" viewBox="0 0 24 24" fill="none" xmlns="http://www.w3.org/2000/svg">
<path d="M4.11835 1H19.5976V4.12423H24L23.0769 7.2485H22.2959V19.8876C22.688 19.8876 23.0059 20.2055 23.0059 20.5976V21.4497H23.1479C23.5401 21.4497 23.858 21.7676 23.858 22.1598V23.0118H15.9053V22.1598C15.9053 21.7676 16.2232 21.4497 16.6154 21.4497H16.7574V20.5976C16.7574 20.2541 17.0013 19.9676 17.3254 19.9018V12.929H17.3032C17.052 10.1423 14.71 7.95856 11.858 7.95856C9.00596 7.95856 6.66396 10.1423 6.41281 12.929H6.39054V19.8876H6.53253C6.92469 19.8876 7.24261 20.2055 7.24261 20.5976V21.4497H7.38461C7.77677 21.4497 8.09466 21.7676 8.09466 22.1598V23.0118H0.141997V22.1598C0.141997 21.7676 0.459927 21.4497 0.852081 21.4497H0.994079V20.5976C0.994079 20.2055 1.31198 19.8876 1.70413 19.8876V7.2485H0.92308L0 4.12423H4.11835V1Z" fill="white"/>
</svg>
