<svg width="24" height="24" viewBox="0 0 24 24" fill="none" xmlns="http://www.w3.org/2000/svg">
<g clip-path="url(#clip0_72_62)">
<path d="M12 2.16233C15.204 2.16233 15.5834 2.17444 16.8489 2.23229C18.0188 2.28565 18.6543 2.48117 19.0771 2.64529C19.6372 2.86278 20.0368 3.12287 20.457 3.54305C20.8767 3.96278 21.1368 4.36278 21.3547 4.92287C21.5188 5.34574 21.7144 5.98117 21.7677 7.15112C21.8256 8.41659 21.8377 8.79596 21.8377 12C21.8377 15.204 21.8256 15.5834 21.7677 16.8489C21.7144 18.0188 21.5188 18.6543 21.3547 19.0771C21.1372 19.6372 20.8771 20.0368 20.457 20.457C20.0372 20.8767 19.6372 21.1368 19.0771 21.3547C18.6543 21.5188 18.0188 21.7144 16.8489 21.7677C15.5839 21.8256 15.2045 21.8377 12 21.8377C8.79552 21.8377 8.41614 21.8256 7.15112 21.7677C5.98117 21.7144 5.34574 21.5188 4.92287 21.3547C4.36278 21.1372 3.96323 20.8771 3.54305 20.457C3.12332 20.0372 2.86323 19.6372 2.64529 19.0771C2.48117 18.6543 2.28565 18.0188 2.23229 16.8489C2.17444 15.5834 2.16233 15.204 2.16233 12C2.16233 8.79596 2.17444 8.41659 2.23229 7.15112C2.28565 5.98117 2.48117 5.34574 2.64529 4.92287C2.86278 4.36278 3.12287 3.96323 3.54305 3.54305C3.96323 3.12287 4.36278 2.86323 4.92287 2.64529C5.34574 2.48117 5.98117 2.28565 7.15112 2.23229C8.41659 2.17444 8.79596 2.16233 12 2.16233ZM12 0C8.74126 0 8.33229 0.0139021 7.05247 0.072198C5.77534 0.130494 4.90314 0.333185 4.13946 0.630046C3.35022 0.936772 2.68117 1.34709 2.0139 2.0139C1.34664 2.68117 0.936324 3.35022 0.630046 4.13946C0.333633 4.90269 0.130494 5.77489 0.072198 7.05247C0.0139021 8.33229 0 8.74081 0 12C0 15.2592 0.0139021 15.6677 0.072198 16.9475C0.130494 18.2247 0.333185 19.0969 0.630046 19.8605C0.936772 20.6498 1.34709 21.3188 2.0139 21.9861C2.68117 22.6534 3.35022 23.0637 4.13946 23.37C4.90269 23.6664 5.77489 23.8695 7.05247 23.9278C8.33229 23.9861 8.74081 24 12 24C15.2592 24 15.6677 23.9861 16.9475 23.9278C18.2247 23.8695 19.0969 23.6668 19.8605 23.37C20.6498 23.0632 21.3188 22.6529 21.9861 21.9861C22.6534 21.3188 23.0637 20.6498 23.37 19.8605C23.6664 19.0973 23.8695 18.2251 23.9278 16.9475C23.9861 15.6677 24 15.2592 24 12C24 8.74081 23.9861 8.33229 23.9278 7.05247C23.8695 5.77534 23.6668 4.90314 23.37 4.13946C23.0632 3.35022 22.6529 2.68117 21.9861 2.0139C21.3188 1.34664 20.6498 0.936324 19.8605 0.630046C19.0973 0.333633 18.2251 0.130494 16.9475 0.072198C15.6677 0.0139021 15.2592 0 12 0Z" fill="white"/>
<path d="M12 5.83812C8.59686 5.83812 5.83812 8.59686 5.83812 12C5.83812 15.4031 8.59686 18.1619 12 18.1619C15.4031 18.1619 18.1619 15.4031 18.1619 12C18.1619 8.59686 15.4031 5.83812 12 5.83812ZM12 16C9.79103 16 8 14.209 8 12C8 9.79103 9.79103 8 12 8C14.209 8 16 9.79103 16 12C16 14.209 14.209 16 12 16Z" fill="white"/>
<path d="M19.4235 6.61296C19.9858 6.05064 19.9858 5.13894 19.4235 4.57662C18.8612 4.0143 17.9494 4.01429 17.3871 4.57661C16.8248 5.13893 16.8248 6.05064 17.3871 6.61296C17.9494 7.17528 18.8612 7.17528 19.4235 6.61296Z" fill="white"/>
</g>
<defs>
<clipPath id="clip0_72_62">
<rect width="24" height="24" fill="white"/>
</clipPath>
</defs>
</svg>
