<svg width="24" height="24" viewBox="0 0 24 24" fill="none" xmlns="http://www.w3.org/2000/svg">
<path fill-rule="evenodd" clip-rule="evenodd" d="M16.5219 7.99773C17.5057 7.1778 18.6032 6.86585 19.6558 6.94472C20.7786 7.02884 21.8175 7.55461 22.5936 8.31829C23.3695 9.08201 23.9026 10.1035 23.988 11.206C24.0741 12.3185 23.7012 13.4837 22.7181 14.5063C22.6283 14.6005 22.5364 14.6934 22.4425 14.7852C17.9836 19.1731 12.0606 19.1847 12 19.1847H11.9997C11.9694 19.1847 6.02769 19.1845 1.55722 14.7847L1.55626 14.7836C1.46396 14.6923 1.37307 14.6003 1.28355 14.5078L1.28283 14.5069C0.299307 13.4852 -0.0739189 12.3203 0.0119163 11.2078C0.096969 10.1056 0.629706 9.08391 1.40546 8.31992C2.18115 7.55597 3.22007 7.02977 4.34306 6.9453C5.39557 6.86611 6.49332 7.17769 7.47756 7.99722C7.5834 6.7332 8.13478 5.74944 8.93517 5.07311C9.78881 4.35177 10.9012 4 11.9998 4C13.0983 4 14.2107 4.35177 15.0643 5.07311C15.8647 5.74952 16.4162 6.73347 16.5219 7.99773ZM12.2039 18.7399L12.2037 18.7343H12.204L12.2039 18.7399ZM11.7957 18.7399L11.7955 18.7343H11.7959L11.7957 18.7399ZM15.3497 12.6469C15.2277 12.6469 15.1854 12.8203 15.2632 12.9121C15.4009 13.0748 15.4839 13.2841 15.4839 13.5125C15.4839 14.0306 15.0571 14.4507 14.5307 14.4507C14.0042 14.4507 13.5774 14.0306 13.5774 13.5125C13.5774 13.4848 13.5407 13.471 13.524 13.4934C13.3737 13.6967 13.2722 13.9248 13.2305 14.1644C13.207 14.2993 13.0956 14.4111 12.9556 14.4111H12.8783C12.6956 14.4111 12.5449 14.2652 12.5718 14.0886C12.7567 12.8781 13.9689 12.0001 15.3497 12.0001C16.7305 12.0001 17.9427 12.8781 18.1275 14.0886C18.1544 14.2652 18.0037 14.4111 17.8211 14.4111C17.6382 14.4111 17.4936 14.2645 17.4538 14.0902C17.2732 13.2967 16.4354 12.6469 15.3497 12.6469ZM6.88465 13.5125C6.88465 13.4759 6.8365 13.4563 6.81384 13.4854C6.65312 13.6918 6.54361 13.9255 6.49725 14.1719C6.46989 14.3173 6.34961 14.4384 6.19824 14.4384H6.14151C5.95879 14.4384 5.80807 14.2926 5.835 14.1159C6.01977 12.9047 7.23213 12.0274 8.61287 12.0274C9.99358 12.0274 11.2059 12.9047 11.3907 14.1159C11.4177 14.2926 11.2669 14.4384 11.0842 14.4384C10.9015 14.4384 10.7568 14.2919 10.7171 14.1175C10.5365 13.3235 9.69875 12.6742 8.61287 12.6742C8.51416 12.6742 8.47803 12.8106 8.54411 12.8823C8.69763 13.0488 8.79118 13.2699 8.79118 13.5125C8.79118 14.0306 8.36439 14.4507 7.83791 14.4507C7.31144 14.4507 6.88465 14.0306 6.88465 13.5125ZM13.0602 15.7751C13.1894 15.6487 13.3889 15.5873 13.5493 15.6728C13.7096 15.7586 13.7704 15.9573 13.6549 16.0957C13.2785 16.5461 12.6692 16.8318 11.9972 16.8318C11.3255 16.8318 10.7149 16.5493 10.3381 16.0953C10.2229 15.9566 10.2845 15.7579 10.4452 15.6728C10.6058 15.5877 10.8051 15.65 10.934 15.7764C11.1824 16.0203 11.5593 16.1851 11.9972 16.1851C12.4339 16.1851 12.8113 16.0185 13.0602 15.7751Z" fill="white"/>
</svg>
