<?xml version="1.0" standalone="no"?>
<!DOCTYPE svg PUBLIC "-//W3C//DTD SVG 20010904//EN"
 "http://www.w3.org/TR/2001/REC-SVG-20010904/DTD/svg10.dtd">
<svg version="1.0" xmlns="http://www.w3.org/2000/svg"
 width="430.000000pt" height="430.000000pt" viewBox="0 0 430.000000 430.000000"
 preserveAspectRatio="xMidYMid meet">
<metadata>
Created by potrace 1.14, written by Peter Selinger 2001-2017
</metadata>
<g transform="translate(0.000000,430.000000) scale(0.100000,-0.100000)"
fill="#000000" stroke="none">
<path d="M1090 3573 c-49 -33 -49 -37 -50 -246 0 -206 3 -225 44 -259 20 -16
83 -17 1054 -18 1122 0 1074 -2 1100 55 8 17 12 91 12 223 -1 212 -3 221 -57
251 -16 8 -296 11 -1050 11 -953 0 -1030 -1 -1053 -17z"/>
<path d="M1111 2476 c-46 -25 -50 -48 -51 -247 0 -111 4 -199 11 -218 22 -63
-8 -61 823 -61 564 0 762 3 781 12 49 22 55 50 55 258 0 208 -6 236 -55 258
-40 18 -1531 16 -1564 -2z"/>
<path d="M1094 1379 c-48 -24 -54 -54 -54 -258 0 -115 4 -199 11 -214 6 -13
23 -31 39 -40 26 -16 115 -17 1055 -17 1055 0 1046 0 1085 38 20 21 28 399 9
444 -25 61 29 58 -1096 57 -670 0 -1035 -4 -1049 -10z"/>
</g>
</svg>
