<svg width="24" height="24" viewBox="0 0 24 24" fill="none" xmlns="http://www.w3.org/2000/svg">
<path d="M12.5438 24C7.75217 24 3.79511 21.5049 2.5012 16.4597C1.77094 13.6111 1.94481 10.3988 2.35196 8.34127C2.80838 6.03165 4.29355 2.81789 6.97409 1.3646C9.79373 -0.164033 13.1654 -0.194461 15.1954 0.244569C17.76 0.798066 19.6161 1.90361 21.0361 3.72493C22.5372 5.65058 22.9299 7.59506 22.9458 7.6762L20.9361 8.06886L21.9402 7.87326L20.9361 8.07321C20.9332 8.05727 20.6072 6.5069 19.4205 4.98406C18.2976 3.54381 16.8617 2.69908 14.7622 2.24701C12.9394 1.85435 10.127 1.98475 7.94778 3.16564C5.74829 4.35812 4.65723 7.22993 4.35875 8.73828C4.01245 10.4915 3.83713 13.4329 4.48191 15.9511C5.12958 18.4766 6.55825 20.2443 8.72731 21.2064C11.1862 22.2975 14.1493 22.0164 15.9402 21.4455C17.7209 20.8775 19.3437 19.2721 19.7146 17.7116C20.1928 15.7019 19.4451 14.1544 17.8672 13.2445C17.5427 15.457 16.4994 17.1117 14.9027 17.8405C12.5206 18.9287 9.40397 18.0492 8.36218 15.996C7.7884 14.863 7.81593 13.4937 8.43752 12.42C8.86207 11.6869 9.95602 10.435 12.5206 10.2988C13.7334 10.235 14.8404 10.2828 15.8373 10.4437C15.6344 9.21498 14.9882 7.72402 13.051 7.65012C11.2861 7.58347 10.4458 8.33692 10.0502 8.9817L8.30422 7.91238C8.75339 7.18066 10.1212 5.4883 13.1292 5.60421C15.9271 5.70998 17.776 7.78487 17.9556 11.0175C21.0216 12.2578 22.4532 15.0397 21.7055 18.1825C21.165 20.4573 19.0496 22.6003 16.5618 23.3943C15.4519 23.7479 14.042 23.9985 12.5395 23.9985L12.5438 24ZM13.5494 12.3186C12.3482 12.3186 10.8167 12.3998 10.2125 13.4444C9.93428 13.9255 9.92704 14.5471 10.1907 15.0687C10.7254 16.1235 12.7119 16.5915 14.0551 15.9772C15.0911 15.5034 15.7431 14.2544 15.8967 12.5302C15.1983 12.3882 14.4144 12.3172 13.5494 12.3172V12.3186Z" fill="white"/>
</svg>
