<svg width="24" height="24" viewBox="0 0 24 24" fill="none" xmlns="http://www.w3.org/2000/svg">
<path d="M22.4894 9.70997C22.2937 9.72902 22.0973 9.73901 21.9007 9.7399C20.8391 9.74005 19.7943 9.47527 18.8604 8.96947C17.9265 8.46367 17.1331 7.73276 16.5516 6.84273V16.7083C16.5516 18.1505 16.1248 19.5603 15.3254 20.7594C14.5259 21.9585 13.3896 22.8931 12.0601 23.445C10.7306 23.9968 9.26771 24.1412 7.85635 23.8599C6.44499 23.5785 5.14857 22.8841 4.13103 21.8643C3.11349 20.8446 2.42054 19.5453 2.13981 18.1309C1.85907 16.7164 2.00315 15.2503 2.55384 13.9179C3.10452 12.5855 4.03708 11.4467 5.23358 10.6455C6.43007 9.84431 7.83677 9.41666 9.27578 9.41666C9.42766 9.41666 9.57613 9.43034 9.72545 9.43975V13.033C9.57613 13.015 9.42937 12.9877 9.27578 12.9877C8.29093 12.9877 7.34641 13.3798 6.65001 14.0777C5.95361 14.7756 5.56238 15.7222 5.56238 16.7092C5.56238 17.6962 5.95361 18.6428 6.65001 19.3407C7.34641 20.0386 8.29093 20.4307 9.27578 20.4307C11.327 20.4307 13.1385 18.8111 13.1385 16.7554L13.1743 0H16.6045C16.7612 1.49364 17.4368 2.88455 18.5132 3.92952C19.5896 4.97449 20.9982 5.60702 22.4928 5.71652V9.70997" fill="white"/>
</svg>
